<svg xmlns="http://www.w3.org/2000/svg" viewBox="0 0 1200 630">
  <!-- Background -->
  <rect width="1200" height="630" fill="#FAF9F6"/>
  
  <!-- Main logo in center -->
  <g transform="translate(300, 150)">
    <polygon points="24,11 36.4,19.98 31.64,34.52 16.36,34.52 11.64,19.98" fill="none" stroke="#1D9E75" stroke-width="2" stroke-linejoin="round" opacity="0.45"/>
    <line x1="24" y1="11" x2="24" y2="24" stroke="#AFA9EC" stroke-width="2" opacity="0.7"/>
    <line x1="36.4" y1="19.98" x2="24" y2="24" stroke="#AFA9EC" stroke-width="2" opacity="0.7"/>
    <line x1="31.64" y1="34.52" x2="24" y2="24" stroke="#AFA9EC" stroke-width="2" opacity="0.7"/>
    <line x1="16.36" y1="34.52" x2="24" y2="24" stroke="#AFA9EC" stroke-width="2" opacity="0.7"/>
    <line x1="11.64" y1="19.98" x2="24" y2="24" stroke="#AFA9EC" stroke-width="2" opacity="0.7"/>
    <line x1="31.64" y1="34.52" x2="43" y2="46" stroke="#2C2C2A" stroke-width="5" stroke-linecap="round"/>
    <circle cx="24" cy="11" r="4" fill="#1D9E75"/>
    <circle cx="36.4" cy="19.98" r="4" fill="#5DCAA5"/>
    <circle cx="31.64" cy="34.52" r="4" fill="#1D9E75"/>
    <circle cx="16.36" cy="34.52" r="4" fill="#9FE1CB"/>
    <circle cx="11.64" cy="19.98" r="4" fill="#9FE1CB"/>
    <circle cx="24" cy="24" r="3.5" fill="#7F77DD"/>
  </g>

  <!-- Text -->
  <text x="600" y="200" font-family="Inter, Arial, sans-serif" font-size="56" font-weight="500" fill="#2C2C2A" text-anchor="middle">Collective Research</text>
  <text x="600" y="250" font-family="Inter, Arial, sans-serif" font-size="28" font-weight="400" fill="#6B6A65" text-anchor="middle">How does your company compare?</text>
  <text x="600" y="300" font-family="Inter, Arial, sans-serif" font-size="20" fill="#9C9A92" text-anchor="middle">A confidential benchmark study on digital transformation</text>
</svg>
